<?xml version="1.0" encoding="UTF-8"?>
<svg id="Capa_2" data-name="Capa 2" xmlns="http://www.w3.org/2000/svg" viewBox="0 0 987.7 560.53">
  <defs>
    <style>
      .cls-1 {
        fill: #8f9172;
      }

      .cls-1, .cls-2, .cls-3 {
        stroke-width: 0px;
      }

      .cls-2 {
        fill: #acb296;
      }

      .cls-3 {
        fill: #e0f0ee;
      }
    </style>
  </defs>
  <g id="Capa_1-2" data-name="Capa 1">
    <path class="cls-2" d="M305.05,136.07c-4.59,0-10.81,0-21.08.28l.81,61.08s-15.67-.57-36.76.28c0,0,0-75-1.08-188.34,0,0,8.92.28,35.95-.28,0,0,.27,38.07.81,94.03,3.24,0,10,.28,21.08.28,0-29.83-.54-64.77-.81-103.12,0,0,13.24.28,37.3-.28,0,0-.27,91.47.81,207.94,0,0-14.59-1.14-37.03-.29,0,0,.54-28.97,0-71.59"/>
    <path class="cls-2" d="M375.58,3.98c29.46-1.42,52.16-1.14,52.16-1.14,0,0,12.97,99.14,29.46,203.68,0,0-15.14-.57-38.65.28,0,0-1.08-12.5-3.51-38.63-6.22,0-15.14-.28-27.03-.28l-2.43,30.68s-11.35-.57-36.49-.57c0,0,11.35-75,26.49-194.02M390.99,136.36s7.03.28,20.81,0c-2.43-25.85-5.95-58.52-10.54-100.56-1.89,16.48-5.95,53.41-10.27,100.56"/>
    <path class="cls-2" d="M465.03,6.25c7.84-.85,15.4-1.42,22.16-1.42,52.16,0,73.24,25.85,73.24,75.56,0,46.3-22.16,72.72-58.92,74.14l1.08,46.02s-15.67-.57-37.84.29c0,0,1.08-74.71.27-194.59M500.98,123.57c13.51-1.42,21.89-10.79,21.89-42.04,0-28.41-7.3-43.18-22.16-42.33,0,25.85-.27,42.04.27,84.37"/>
    <path class="cls-2" d="M569.62,11.08c8.38-.85,16.22-1.14,23.51-1.14,51.89,0,72.7,24.43,72.7,71.02s-23.78,68.74-60,70.45l1.35,51.7s-15.67-.57-37.84.28c0,0,1.08-72.44.27-192.32M605.57,121.3c14.32-1.7,22.7-10.51,22.7-39.49,0-24.43-6.22-38.63-22.97-38.35,0,24.71-.27,39.77.27,77.84"/>
    <path class="cls-2" d="M697.45,160.79s-8.38-40.62-36.22-150.56c0,0,7.03,0,39.73-1.42,0,0,5.67,41.19,15.4,97.15,0,0,7.57-44.6,16.22-102.83,0,0,10.54.85,37.84.85,0,0-14.59,59.37-36.21,156.24,0,0-.54,5.96.81,45.45,0,0-7.84-.57-37.29.28,0,0,.81-9.37-.27-45.17"/>
    <path class="cls-2" d="M146.28,338.82s14.86.57,37.84.85c-2.43,29.83,1.35,43.18,10.81,43.18,6.76,0,10.27-5.4,10.27-21.87,0-13.07-4.59-22.44-27.03-39.2-24.32-18.18-32.7-36.36-32.7-61.93,0-36.65,20.27-51.7,49.46-51.7,35.68,0,50.81,25.57,45.94,73.57,0,0-18.11-1.7-36.76-2.27,3.24-29.26-1.62-40.34-9.73-40.34-7.3,0-10.54,8.52-10.54,22.73s5.95,23.58,26.49,38.07c24.86,17.61,33.51,33.24,33.51,60.22,0,39.49-20.27,53.69-49.19,53.69-38.38,0-52.7-25.28-48.38-75"/>
    <path class="cls-2" d="M271.95,211.27c29.46-1.42,52.16-1.14,52.16-1.14,0,0,12.97,99.14,29.46,203.68,0,0-15.13-.57-38.65.28,0,0-1.08-12.5-3.51-38.63-6.22,0-15.13-.28-27.03-.28l-2.43,30.68s-11.35-.57-36.49-.57c0,0,11.35-75,26.49-194.02M287.35,343.65s7.03.28,20.81,0c-2.43-25.85-5.95-58.52-10.54-100.56-1.89,16.48-5.95,53.41-10.27,100.56"/>
    <path class="cls-2" d="M361.4,213.55c7.84-.85,15.4-1.42,22.16-1.42,52.16,0,73.24,25.85,73.24,75.56,0,46.3-22.16,72.72-58.92,74.14l1.08,46.02s-15.68-.57-37.84.29c0,0,1.08-74.71.27-194.59M397.35,330.87c13.51-1.42,21.89-10.79,21.89-42.04,0-28.41-7.3-43.18-22.16-42.33,0,25.85-.27,42.04.27,84.37"/>
    <path class="cls-2" d="M467.61,212.41s12.7,0,36.75-.28c0,0,.54,95.16,1.35,197.71,0,0-12.97-.29-37.03,0,0,0,.27-86.93-1.08-197.43"/>
    <path class="cls-2" d="M521.39,212.41s21.89-.28,76.48-1.14c0,0-.27,15.62.27,37.78,0,0-22.16.28-40.27.85,0,0-.27,17.33.27,46.02,2.16,0,14.05.28,34.59-.28,0,0,0,15.06.27,36.08,0,0-14.87-.29-34.32-.29.27,12.78.54,26.7,1.08,41.48,0,0,15.68,1.14,39.19,1.7,0,0-.54,12.21-.54,35.79,0,0-34.32-1.14-74.86-1.7,0,0-.54-81.81-2.16-196.29"/>
    <path class="cls-2" d="M608.95,218.66s14.32-1.14,35.94-1.7c0,0,14.05,53.69,34.33,121.3-.81-28.12-2.43-74.71-5.95-130.96,0,0,12.7.85,33.51.57,0,0,1.08,76.42,3.78,203.11,0,0-11.08,1.71-34.32,3.41,0,0-13.51-46.3-35.4-120.73.27,25.57,1.35,66.19,3.78,111.92,0,0-14.6-.57-34.86-.57,0,0,.81-71.02-.81-186.35"/>
    <path class="cls-2" d="M721.37,338.82s14.86.57,37.84.85c-2.43,29.83,1.35,43.18,10.81,43.18,6.76,0,10.27-5.4,10.27-21.87,0-13.07-4.59-22.44-27.03-39.2-24.33-18.18-32.7-36.36-32.7-61.93,0-36.65,20.27-51.7,49.46-51.7,35.67,0,50.81,25.57,45.95,73.57,0,0-18.11-1.7-36.76-2.27,3.24-29.26-1.62-40.34-9.73-40.34-7.3,0-10.54,8.52-10.54,22.73s5.95,23.58,26.49,38.07c24.86,17.61,33.51,33.24,33.51,60.22,0,39.49-20.27,53.69-49.19,53.69-38.38,0-52.7-25.28-48.38-75"/>
    <path class="cls-3" d="M981.16,560.53H6.54c-3.6,0-6.54-2.94-6.54-6.54v-114.14c0-3.6,2.94-6.54,6.54-6.54h974.62c3.6,0,6.54,2.94,6.54,6.54v114.14c0,3.6-2.94,6.54-6.54,6.54"/>
    <path class="cls-1" d="M96.57,463.67c3.36-.81,8.75-1.35,14.04-1.35,7.69,0,12.63,1.35,16.25,4.4,3.09,2.33,5.04,5.92,5.04,10.68,0,5.92-3.89,11.04-10.07,13.28v.27c5.65,1.35,12.28,6.1,12.28,15.08,0,5.21-2.03,9.25-5.12,12.12-4.06,3.86-10.78,5.65-20.49,5.65-5.3,0-9.36-.36-11.93-.72v-59.42ZM104.25,488.44h6.98c8.04,0,12.81-4.4,12.81-10.23,0-7-5.21-9.87-12.99-9.87-3.53,0-5.57.27-6.8.54v19.57ZM104.25,517.34c1.59.27,3.71.36,6.45.36,7.95,0,15.28-2.96,15.28-11.76,0-8.17-6.98-11.67-15.37-11.67h-6.36v23.07Z"/>
    <polygon class="cls-1" points="144.35 462.77 152.13 462.77 152.13 516.71 177.57 516.71 177.57 523.27 144.35 523.27 144.35 462.77"/>
    <polygon class="cls-1" points="216.88 494.9 193.82 494.9 193.82 516.71 219.61 516.71 219.61 523.27 186.05 523.27 186.05 462.77 218.29 462.77 218.29 469.33 193.82 469.33 193.82 488.44 216.88 488.44 216.88 494.9"/>
    <path class="cls-1" d="M229.59,523.27v-60.49h8.48l18.99,30.6c4.33,7.09,7.86,13.46,10.6,19.66l.27-.09c-.71-8.08-.88-15.44-.88-24.86v-25.31h7.24v60.49h-7.77l-18.9-30.69c-4.15-6.73-8.13-13.64-11.04-20.19l-.27.09c.44,7.63.53,14.9.53,24.95v25.85h-7.24Z"/>
    <path class="cls-1" d="M287.72,463.67c4.68-.81,10.25-1.35,16.34-1.35,11.04,0,18.9,2.69,24.11,7.54,5.39,4.94,8.48,11.94,8.48,21.72s-3.09,17.95-8.57,23.52c-5.65,5.65-14.84,8.71-26.41,8.71-5.56,0-10.07-.27-13.96-.72v-59.42ZM295.4,517.16c1.94.27,4.77.36,7.77.36,16.52,0,25.35-9.33,25.35-25.67.09-14.27-7.86-23.34-24.12-23.34-3.98,0-6.98.36-9.01.81v47.84Z"/>
    <path class="cls-1" d="M345.58,513.75c3.44,2.24,8.39,3.95,13.69,3.95,7.86,0,12.46-4.22,12.46-10.32,0-5.56-3.18-8.89-11.22-11.94-9.72-3.59-15.72-8.79-15.72-17.23,0-9.42,7.68-16.42,19.26-16.42,6.01,0,10.51,1.44,13.07,2.96l-2.12,6.37c-1.85-1.17-5.83-2.87-11.22-2.87-8.13,0-11.22,4.94-11.22,9.06,0,5.65,3.62,8.44,11.84,11.67,10.07,3.95,15.11,8.89,15.11,17.77,0,9.33-6.71,17.5-20.76,17.5-5.74,0-12.01-1.8-15.19-3.95l2.03-6.55Z"/>
    <path class="cls-1" d="M418.45,504.24l-6.18,19.03h-7.95l20.32-60.49h9.19l20.32,60.49h-8.21l-6.36-19.03h-21.11ZM438.06,498.14l-5.92-17.41c-1.32-3.95-2.21-7.54-3.09-11.04h-.18c-.88,3.5-1.77,7.27-3,10.95l-5.83,17.5h18.02Z"/>
    <path class="cls-1" d="M462.88,523.27v-60.49h8.48l18.99,30.6c4.33,7.09,7.86,13.46,10.6,19.66l.27-.09c-.71-8.08-.88-15.44-.88-24.86v-25.31h7.24v60.49h-7.77l-18.9-30.69c-4.15-6.73-8.13-13.64-11.04-20.19l-.27.09c.44,7.63.53,14.9.53,24.95v25.85h-7.24Z"/>
    <path class="cls-1" d="M521,463.67c4.68-.81,10.25-1.35,16.34-1.35,11.04,0,18.9,2.69,24.12,7.54,5.39,4.94,8.48,11.94,8.48,21.72s-3.09,17.95-8.57,23.52c-5.65,5.65-14.84,8.71-26.41,8.71-5.57,0-10.07-.27-13.96-.72v-59.42ZM528.69,517.16c1.94.27,4.77.36,7.77.36,16.52,0,25.35-9.33,25.35-25.67.09-14.27-7.86-23.34-24.12-23.34-3.97,0-6.98.36-9.01.81v47.84Z"/>
    <path class="cls-1" d="M598.56,463.58c3.89-.72,9.54-1.26,14.75-1.26,8.21,0,13.6,1.62,17.22,4.94,2.92,2.69,4.68,6.82,4.68,11.58,0,7.9-4.95,13.19-11.13,15.35v.27c4.51,1.62,7.24,5.92,8.66,12.21,1.94,8.44,3.36,14.27,4.59,16.6h-7.95c-.97-1.79-2.3-6.91-3.89-14.45-1.77-8.35-5.03-11.49-12.01-11.76h-7.24v26.21h-7.69v-59.69ZM606.24,491.14h7.86c8.22,0,13.43-4.58,13.43-11.49,0-7.81-5.56-11.22-13.69-11.22-3.71,0-6.27.27-7.6.63v22.08Z"/>
    <rect class="cls-1" x="646" y="462.77" width="7.77" height="60.49"/>
    <polygon class="cls-1" points="678.5 469.42 660.39 469.42 660.39 462.77 704.47 462.77 704.47 469.42 686.27 469.42 686.27 523.27 678.5 523.27 678.5 469.42"/>
    <path class="cls-1" d="M718.78,462.77v35.9c0,13.46,5.92,19.21,13.87,19.21,8.74,0,14.49-5.92,14.49-19.21v-35.9h7.77v35.36c0,18.58-9.63,26.12-22.52,26.12-12.19,0-21.38-7-21.38-25.85v-35.63h7.77Z"/>
    <path class="cls-1" d="M774.87,504.24l-6.18,19.03h-7.95l20.32-60.49h9.19l20.32,60.49h-8.21l-6.36-19.03h-21.11ZM794.48,498.14l-5.92-17.41c-1.33-3.95-2.21-7.54-3.09-11.04h-.18c-.88,3.5-1.77,7.27-3,10.95l-5.83,17.5h18.02Z"/>
    <polygon class="cls-1" points="819.22 462.77 826.99 462.77 826.99 516.71 852.43 516.71 852.43 523.27 819.22 523.27 819.22 462.77"/>
    <path class="cls-1" d="M860.03,513.75c3.44,2.24,8.39,3.95,13.69,3.95,7.86,0,12.46-4.22,12.46-10.32,0-5.56-3.18-8.89-11.22-11.94-9.72-3.59-15.72-8.79-15.72-17.23,0-9.42,7.69-16.42,19.26-16.42,6.01,0,10.51,1.44,13.07,2.96l-2.12,6.37c-1.85-1.17-5.83-2.87-11.22-2.87-8.13,0-11.22,4.94-11.22,9.06,0,5.65,3.62,8.44,11.84,11.67,10.07,3.95,15.11,8.89,15.11,17.77,0,9.33-6.71,17.5-20.76,17.5-5.74,0-12.01-1.8-15.19-3.95l2.03-6.55Z"/>
  </g>
</svg>